<?xml version="1.0" encoding="utf-8" standalone="no"?>
<!DOCTYPE svg PUBLIC "-//W3C//DTD SVG 1.1//EN"
  "http://www.w3.org/Graphics/SVG/1.1/DTD/svg11.dtd">
<!-- Created with matplotlib (http://matplotlib.org/) -->
<svg height="475pt" version="1.1" viewBox="0 0 460 475" width="460pt" xmlns="http://www.w3.org/2000/svg" xmlns:xlink="http://www.w3.org/1999/xlink">
 <defs>
  <style type="text/css">
*{stroke-linecap:butt;stroke-linejoin:round;stroke-miterlimit:100000;}
  </style>
 </defs>
 <g id="figure_1">
  <g id="patch_1">
   <path d="M 0 475.2 
L 460.8 475.2 
L 460.8 0 
L 0 0 
z
" style="fill:#ffffff;"/>
  </g>
  <g id="axes_1">
   <g id="patch_2">
    <path d="M 7.2 468 
L 453.6 468 
L 453.6 7.2 
L 7.2 7.2 
z
" style="fill:#ffffff;"/>
   </g>
   <g id="matplotlib.axis_1">
    <g id="xtick_1">
     <g id="line2d_1">
      <path clip-path="url(#pdaf9621bb4)" d="M 56.8 468 
L 56.8 7.2 
" style="fill:none;stroke-dasharray:1.000000,3.000000;stroke-dashoffset:0.0;"/>
     </g>
     <g id="line2d_2">
      <defs>
       <path d="M 0 0 
L 0 -4 
" id="mf613c16573" style="stroke:#000000;stroke-width:0.5;"/>
      </defs>
      <g>
       <use style="stroke:#000000;stroke-width:0.5;" x="56.8" xlink:href="#mf613c16573" y="468.0"/>
      </g>
     </g>
     <g id="line2d_3">
      <defs>
       <path d="M 0 0 
L 0 4 
" id="m411448db8a" style="stroke:#000000;stroke-width:0.5;"/>
      </defs>
      <g>
       <use style="stroke:#000000;stroke-width:0.5;" x="56.8" xlink:href="#m411448db8a" y="7.2"/>
      </g>
     </g>
    </g>
    <g id="xtick_2">
     <g id="line2d_4">
      <path clip-path="url(#pdaf9621bb4)" d="M 106.4 468 
L 106.4 7.2 
" style="fill:none;stroke-dasharray:1.000000,3.000000;stroke-dashoffset:0.0;"/>
     </g>
     <g id="line2d_5">
      <g>
       <use style="stroke:#000000;stroke-width:0.5;" x="106.4" xlink:href="#mf613c16573" y="468.0"/>
      </g>
     </g>
     <g id="line2d_6">
      <g>
       <use style="stroke:#000000;stroke-width:0.5;" x="106.4" xlink:href="#m411448db8a" y="7.2"/>
      </g>
     </g>
    </g>
    <g id="xtick_3">
     <g id="line2d_7">
      <path clip-path="url(#pdaf9621bb4)" d="M 156 468 
L 156 7.2 
" style="fill:none;stroke-dasharray:1.000000,3.000000;stroke-dashoffset:0.0;"/>
     </g>
     <g id="line2d_8">
      <g>
       <use style="stroke:#000000;stroke-width:0.5;" x="156.0" xlink:href="#mf613c16573" y="468.0"/>
      </g>
     </g>
     <g id="line2d_9">
      <g>
       <use style="stroke:#000000;stroke-width:0.5;" x="156.0" xlink:href="#m411448db8a" y="7.2"/>
      </g>
     </g>
    </g>
    <g id="xtick_4">
     <g id="line2d_10">
      <path clip-path="url(#pdaf9621bb4)" d="M 205.6 468 
L 205.6 7.2 
" style="fill:none;stroke-dasharray:1.000000,3.000000;stroke-dashoffset:0.0;"/>
     </g>
     <g id="line2d_11">
      <g>
       <use style="stroke:#000000;stroke-width:0.5;" x="205.6" xlink:href="#mf613c16573" y="468.0"/>
      </g>
     </g>
     <g id="line2d_12">
      <g>
       <use style="stroke:#000000;stroke-width:0.5;" x="205.6" xlink:href="#m411448db8a" y="7.2"/>
      </g>
     </g>
    </g>
    <g id="xtick_5">
     <g id="line2d_13">
      <path clip-path="url(#pdaf9621bb4)" d="M 255.2 468 
L 255.2 7.2 
" style="fill:none;stroke-dasharray:1.000000,3.000000;stroke-dashoffset:0.0;"/>
     </g>
     <g id="line2d_14">
      <g>
       <use style="stroke:#000000;stroke-width:0.5;" x="255.2" xlink:href="#mf613c16573" y="468.0"/>
      </g>
     </g>
     <g id="line2d_15">
      <g>
       <use style="stroke:#000000;stroke-width:0.5;" x="255.2" xlink:href="#m411448db8a" y="7.2"/>
      </g>
     </g>
    </g>
    <g id="xtick_6">
     <g id="line2d_16">
      <path clip-path="url(#pdaf9621bb4)" d="M 304.8 468 
L 304.8 7.2 
" style="fill:none;stroke-dasharray:1.000000,3.000000;stroke-dashoffset:0.0;"/>
     </g>
     <g id="line2d_17">
      <g>
       <use style="stroke:#000000;stroke-width:0.5;" x="304.8" xlink:href="#mf613c16573" y="468.0"/>
      </g>
     </g>
     <g id="line2d_18">
      <g>
       <use style="stroke:#000000;stroke-width:0.5;" x="304.8" xlink:href="#m411448db8a" y="7.2"/>
      </g>
     </g>
    </g>
    <g id="xtick_7">
     <g id="line2d_19">
      <path clip-path="url(#pdaf9621bb4)" d="M 354.4 468 
L 354.4 7.2 
" style="fill:none;stroke-dasharray:1.000000,3.000000;stroke-dashoffset:0.0;"/>
     </g>
     <g id="line2d_20">
      <g>
       <use style="stroke:#000000;stroke-width:0.5;" x="354.4" xlink:href="#mf613c16573" y="468.0"/>
      </g>
     </g>
     <g id="line2d_21">
      <g>
       <use style="stroke:#000000;stroke-width:0.5;" x="354.4" xlink:href="#m411448db8a" y="7.2"/>
      </g>
     </g>
    </g>
    <g id="xtick_8">
     <g id="line2d_22">
      <path clip-path="url(#pdaf9621bb4)" d="M 404 468 
L 404 7.2 
" style="fill:none;stroke-dasharray:1.000000,3.000000;stroke-dashoffset:0.0;"/>
     </g>
     <g id="line2d_23">
      <g>
       <use style="stroke:#000000;stroke-width:0.5;" x="404.0" xlink:href="#mf613c16573" y="468.0"/>
      </g>
     </g>
     <g id="line2d_24">
      <g>
       <use style="stroke:#000000;stroke-width:0.5;" x="404.0" xlink:href="#m411448db8a" y="7.2"/>
      </g>
     </g>
    </g>
   </g>
   <g id="matplotlib.axis_2">
    <g id="ytick_1">
     <g id="line2d_25">
      <path clip-path="url(#pdaf9621bb4)" d="M 7.2 468 
L 453.6 468 
" style="fill:none;stroke:#000000;stroke-dasharray:1.000000,3.000000;stroke-dashoffset:0.0;stroke-width:0.5;"/>
     </g>
     <g id="line2d_26">
      <defs>
       <path d="M 0 0 
L 4 0 
" id="m8ad0b0ce18" style="stroke:#000000;stroke-width:0.5;"/>
      </defs>
      <g>
       <use style="stroke:#000000;stroke-width:0.5;" x="7.2" xlink:href="#m8ad0b0ce18" y="468.0"/>
      </g>
     </g>
     <g id="line2d_27">
      <defs>
       <path d="M 0 0 
L -4 0 
" id="m98086f9c93" style="stroke:#000000;stroke-width:0.5;"/>
      </defs>
      <g>
       <use style="stroke:#000000;stroke-width:0.5;" x="453.6" xlink:href="#m98086f9c93" y="468.0"/>
      </g>
     </g>
    </g>
    <g id="ytick_2">
     <g id="line2d_28">
      <path clip-path="url(#pdaf9621bb4)" d="M 7.2 444.96 
L 453.6 444.96 
" style="fill:none;stroke:#000000;stroke-dasharray:1.000000,3.000000;stroke-dashoffset:0.0;stroke-width:0.5;"/>
     </g>
     <g id="line2d_29">
      <g>
       <use style="stroke:#000000;stroke-width:0.5;" x="7.2" xlink:href="#m8ad0b0ce18" y="444.96"/>
      </g>
     </g>
     <g id="line2d_30">
      <g>
       <use style="stroke:#000000;stroke-width:0.5;" x="453.6" xlink:href="#m98086f9c93" y="444.96"/>
      </g>
     </g>
    </g>
    <g id="ytick_3">
     <g id="line2d_31">
      <path clip-path="url(#pdaf9621bb4)" d="M 7.2 421.92 
L 453.6 421.92 
" style="fill:none;stroke:#000000;stroke-dasharray:1.000000,3.000000;stroke-dashoffset:0.0;stroke-width:0.5;"/>
     </g>
     <g id="line2d_32">
      <g>
       <use style="stroke:#000000;stroke-width:0.5;" x="7.2" xlink:href="#m8ad0b0ce18" y="421.92"/>
      </g>
     </g>
     <g id="line2d_33">
      <g>
       <use style="stroke:#000000;stroke-width:0.5;" x="453.6" xlink:href="#m98086f9c93" y="421.92"/>
      </g>
     </g>
    </g>
    <g id="ytick_4">
     <g id="line2d_34">
      <path clip-path="url(#pdaf9621bb4)" d="M 7.2 398.88 
L 453.6 398.88 
" style="fill:none;stroke:#000000;stroke-dasharray:1.000000,3.000000;stroke-dashoffset:0.0;stroke-width:0.5;"/>
     </g>
     <g id="line2d_35">
      <g>
       <use style="stroke:#000000;stroke-width:0.5;" x="7.2" xlink:href="#m8ad0b0ce18" y="398.88"/>
      </g>
     </g>
     <g id="line2d_36">
      <g>
       <use style="stroke:#000000;stroke-width:0.5;" x="453.6" xlink:href="#m98086f9c93" y="398.88"/>
      </g>
     </g>
    </g>
    <g id="ytick_5">
     <g id="line2d_37">
      <path clip-path="url(#pdaf9621bb4)" d="M 7.2 375.84 
L 453.6 375.84 
" style="fill:none;stroke:#000000;stroke-dasharray:1.000000,3.000000;stroke-dashoffset:0.0;stroke-width:0.5;"/>
     </g>
     <g id="line2d_38">
      <g>
       <use style="stroke:#000000;stroke-width:0.5;" x="7.2" xlink:href="#m8ad0b0ce18" y="375.84"/>
      </g>
     </g>
     <g id="line2d_39">
      <g>
       <use style="stroke:#000000;stroke-width:0.5;" x="453.6" xlink:href="#m98086f9c93" y="375.84"/>
      </g>
     </g>
    </g>
    <g id="ytick_6">
     <g id="line2d_40">
      <path clip-path="url(#pdaf9621bb4)" d="M 7.2 352.8 
L 453.6 352.8 
" style="fill:none;stroke:#000000;stroke-dasharray:1.000000,3.000000;stroke-dashoffset:0.0;stroke-width:0.5;"/>
     </g>
     <g id="line2d_41">
      <g>
       <use style="stroke:#000000;stroke-width:0.5;" x="7.2" xlink:href="#m8ad0b0ce18" y="352.8"/>
      </g>
     </g>
     <g id="line2d_42">
      <g>
       <use style="stroke:#000000;stroke-width:0.5;" x="453.6" xlink:href="#m98086f9c93" y="352.8"/>
      </g>
     </g>
    </g>
    <g id="ytick_7">
     <g id="line2d_43">
      <path clip-path="url(#pdaf9621bb4)" d="M 7.2 329.76 
L 453.6 329.76 
" style="fill:none;stroke:#000000;stroke-dasharray:1.000000,3.000000;stroke-dashoffset:0.0;stroke-width:0.5;"/>
     </g>
     <g id="line2d_44">
      <g>
       <use style="stroke:#000000;stroke-width:0.5;" x="7.2" xlink:href="#m8ad0b0ce18" y="329.76"/>
      </g>
     </g>
     <g id="line2d_45">
      <g>
       <use style="stroke:#000000;stroke-width:0.5;" x="453.6" xlink:href="#m98086f9c93" y="329.76"/>
      </g>
     </g>
    </g>
    <g id="ytick_8">
     <g id="line2d_46">
      <path clip-path="url(#pdaf9621bb4)" d="M 7.2 306.72 
L 453.6 306.72 
" style="fill:none;stroke:#000000;stroke-dasharray:1.000000,3.000000;stroke-dashoffset:0.0;stroke-width:0.5;"/>
     </g>
     <g id="line2d_47">
      <g>
       <use style="stroke:#000000;stroke-width:0.5;" x="7.2" xlink:href="#m8ad0b0ce18" y="306.72"/>
      </g>
     </g>
     <g id="line2d_48">
      <g>
       <use style="stroke:#000000;stroke-width:0.5;" x="453.6" xlink:href="#m98086f9c93" y="306.72"/>
      </g>
     </g>
    </g>
    <g id="ytick_9">
     <g id="line2d_49">
      <path clip-path="url(#pdaf9621bb4)" d="M 7.2 283.68 
L 453.6 283.68 
" style="fill:none;stroke:#000000;stroke-dasharray:1.000000,3.000000;stroke-dashoffset:0.0;stroke-width:0.5;"/>
     </g>
     <g id="line2d_50">
      <g>
       <use style="stroke:#000000;stroke-width:0.5;" x="7.2" xlink:href="#m8ad0b0ce18" y="283.68"/>
      </g>
     </g>
     <g id="line2d_51">
      <g>
       <use style="stroke:#000000;stroke-width:0.5;" x="453.6" xlink:href="#m98086f9c93" y="283.68"/>
      </g>
     </g>
    </g>
    <g id="ytick_10">
     <g id="line2d_52">
      <path clip-path="url(#pdaf9621bb4)" d="M 7.2 260.64 
L 453.6 260.64 
" style="fill:none;stroke:#000000;stroke-dasharray:1.000000,3.000000;stroke-dashoffset:0.0;stroke-width:0.5;"/>
     </g>
     <g id="line2d_53">
      <g>
       <use style="stroke:#000000;stroke-width:0.5;" x="7.2" xlink:href="#m8ad0b0ce18" y="260.64"/>
      </g>
     </g>
     <g id="line2d_54">
      <g>
       <use style="stroke:#000000;stroke-width:0.5;" x="453.6" xlink:href="#m98086f9c93" y="260.64"/>
      </g>
     </g>
    </g>
    <g id="ytick_11">
     <g id="line2d_55">
      <path clip-path="url(#pdaf9621bb4)" d="M 7.2 237.6 
L 453.6 237.6 
" style="fill:none;stroke:#000000;stroke-dasharray:1.000000,3.000000;stroke-dashoffset:0.0;stroke-width:0.5;"/>
     </g>
     <g id="line2d_56">
      <g>
       <use style="stroke:#000000;stroke-width:0.5;" x="7.2" xlink:href="#m8ad0b0ce18" y="237.6"/>
      </g>
     </g>
     <g id="line2d_57">
      <g>
       <use style="stroke:#000000;stroke-width:0.5;" x="453.6" xlink:href="#m98086f9c93" y="237.6"/>
      </g>
     </g>
    </g>
    <g id="ytick_12">
     <g id="line2d_58">
      <path clip-path="url(#pdaf9621bb4)" d="M 7.2 214.56 
L 453.6 214.56 
" style="fill:none;stroke:#000000;stroke-dasharray:1.000000,3.000000;stroke-dashoffset:0.0;stroke-width:0.5;"/>
     </g>
     <g id="line2d_59">
      <g>
       <use style="stroke:#000000;stroke-width:0.5;" x="7.2" xlink:href="#m8ad0b0ce18" y="214.56"/>
      </g>
     </g>
     <g id="line2d_60">
      <g>
       <use style="stroke:#000000;stroke-width:0.5;" x="453.6" xlink:href="#m98086f9c93" y="214.56"/>
      </g>
     </g>
    </g>
    <g id="ytick_13">
     <g id="line2d_61">
      <path clip-path="url(#pdaf9621bb4)" d="M 7.2 191.52 
L 453.6 191.52 
" style="fill:none;stroke:#000000;stroke-dasharray:1.000000,3.000000;stroke-dashoffset:0.0;stroke-width:0.5;"/>
     </g>
     <g id="line2d_62">
      <g>
       <use style="stroke:#000000;stroke-width:0.5;" x="7.2" xlink:href="#m8ad0b0ce18" y="191.52"/>
      </g>
     </g>
     <g id="line2d_63">
      <g>
       <use style="stroke:#000000;stroke-width:0.5;" x="453.6" xlink:href="#m98086f9c93" y="191.52"/>
      </g>
     </g>
    </g>
    <g id="ytick_14">
     <g id="line2d_64">
      <path clip-path="url(#pdaf9621bb4)" d="M 7.2 168.48 
L 453.6 168.48 
" style="fill:none;stroke:#000000;stroke-dasharray:1.000000,3.000000;stroke-dashoffset:0.0;stroke-width:0.5;"/>
     </g>
     <g id="line2d_65">
      <g>
       <use style="stroke:#000000;stroke-width:0.5;" x="7.2" xlink:href="#m8ad0b0ce18" y="168.48"/>
      </g>
     </g>
     <g id="line2d_66">
      <g>
       <use style="stroke:#000000;stroke-width:0.5;" x="453.6" xlink:href="#m98086f9c93" y="168.48"/>
      </g>
     </g>
    </g>
    <g id="ytick_15">
     <g id="line2d_67">
      <path clip-path="url(#pdaf9621bb4)" d="M 7.2 145.44 
L 453.6 145.44 
" style="fill:none;stroke:#000000;stroke-dasharray:1.000000,3.000000;stroke-dashoffset:0.0;stroke-width:0.5;"/>
     </g>
     <g id="line2d_68">
      <g>
       <use style="stroke:#000000;stroke-width:0.5;" x="7.2" xlink:href="#m8ad0b0ce18" y="145.44"/>
      </g>
     </g>
     <g id="line2d_69">
      <g>
       <use style="stroke:#000000;stroke-width:0.5;" x="453.6" xlink:href="#m98086f9c93" y="145.44"/>
      </g>
     </g>
    </g>
    <g id="ytick_16">
     <g id="line2d_70">
      <path clip-path="url(#pdaf9621bb4)" d="M 7.2 122.4 
L 453.6 122.4 
" style="fill:none;stroke:#000000;stroke-dasharray:1.000000,3.000000;stroke-dashoffset:0.0;stroke-width:0.5;"/>
     </g>
     <g id="line2d_71">
      <g>
       <use style="stroke:#000000;stroke-width:0.5;" x="7.2" xlink:href="#m8ad0b0ce18" y="122.4"/>
      </g>
     </g>
     <g id="line2d_72">
      <g>
       <use style="stroke:#000000;stroke-width:0.5;" x="453.6" xlink:href="#m98086f9c93" y="122.4"/>
      </g>
     </g>
    </g>
    <g id="ytick_17">
     <g id="line2d_73">
      <path clip-path="url(#pdaf9621bb4)" d="M 7.2 99.36 
L 453.6 99.36 
" style="fill:none;stroke:#000000;stroke-dasharray:1.000000,3.000000;stroke-dashoffset:0.0;stroke-width:0.5;"/>
     </g>
     <g id="line2d_74">
      <g>
       <use style="stroke:#000000;stroke-width:0.5;" x="7.2" xlink:href="#m8ad0b0ce18" y="99.36"/>
      </g>
     </g>
     <g id="line2d_75">
      <g>
       <use style="stroke:#000000;stroke-width:0.5;" x="453.6" xlink:href="#m98086f9c93" y="99.36"/>
      </g>
     </g>
    </g>
    <g id="ytick_18">
     <g id="line2d_76">
      <path clip-path="url(#pdaf9621bb4)" d="M 7.2 76.32 
L 453.6 76.32 
" style="fill:none;stroke:#000000;stroke-dasharray:1.000000,3.000000;stroke-dashoffset:0.0;stroke-width:0.5;"/>
     </g>
     <g id="line2d_77">
      <g>
       <use style="stroke:#000000;stroke-width:0.5;" x="7.2" xlink:href="#m8ad0b0ce18" y="76.32"/>
      </g>
     </g>
     <g id="line2d_78">
      <g>
       <use style="stroke:#000000;stroke-width:0.5;" x="453.6" xlink:href="#m98086f9c93" y="76.32"/>
      </g>
     </g>
    </g>
    <g id="ytick_19">
     <g id="line2d_79">
      <path clip-path="url(#pdaf9621bb4)" d="M 7.2 53.28 
L 453.6 53.28 
" style="fill:none;stroke:#000000;stroke-dasharray:1.000000,3.000000;stroke-dashoffset:0.0;stroke-width:0.5;"/>
     </g>
     <g id="line2d_80">
      <g>
       <use style="stroke:#000000;stroke-width:0.5;" x="7.2" xlink:href="#m8ad0b0ce18" y="53.28"/>
      </g>
     </g>
     <g id="line2d_81">
      <g>
       <use style="stroke:#000000;stroke-width:0.5;" x="453.6" xlink:href="#m98086f9c93" y="53.28"/>
      </g>
     </g>
    </g>
    <g id="ytick_20">
     <g id="line2d_82">
      <path clip-path="url(#pdaf9621bb4)" d="M 7.2 30.24 
L 453.6 30.24 
" style="fill:none;stroke:#000000;stroke-dasharray:1.000000,3.000000;stroke-dashoffset:0.0;stroke-width:0.5;"/>
     </g>
     <g id="line2d_83">
      <g>
       <use style="stroke:#000000;stroke-width:0.5;" x="7.2" xlink:href="#m8ad0b0ce18" y="30.24"/>
      </g>
     </g>
     <g id="line2d_84">
      <g>
       <use style="stroke:#000000;stroke-width:0.5;" x="453.6" xlink:href="#m98086f9c93" y="30.24"/>
      </g>
     </g>
    </g>
    <g id="ytick_21">
     <g id="line2d_85">
      <path clip-path="url(#pdaf9621bb4)" d="M 7.2 7.2 
L 453.6 7.2 
" style="fill:none;stroke:#000000;stroke-dasharray:1.000000,3.000000;stroke-dashoffset:0.0;stroke-width:0.5;"/>
     </g>
     <g id="line2d_86">
      <g>
       <use style="stroke:#000000;stroke-width:0.5;" x="7.2" xlink:href="#m8ad0b0ce18" y="7.2"/>
      </g>
     </g>
     <g id="line2d_87">
      <g>
       <use style="stroke:#000000;stroke-width:0.5;" x="453.6" xlink:href="#m98086f9c93" y="7.2"/>
      </g>
     </g>
    </g>
   </g>
   <g id="PolyCollection_1">
    <defs>
     <path d="M 57.164082 -48.282969 
L 56.435918 -48.282969 
L 56.271164 -51.541298 
L 56.048714 -54.799626 
L 55.755534 -58.057954 
L 55.378717 -61.316283 
L 54.906953 -64.574611 
L 54.332293 -67.832939 
L 53.651949 -71.091268 
L 52.869819 -74.349596 
L 51.997431 -77.607924 
L 51.05411 -80.866253 
L 50.066328 -84.124581 
L 49.066305 -87.382909 
L 48.090003 -90.641238 
L 47.174593 -93.899566 
L 46.355452 -97.157894 
L 45.662753 -100.416223 
L 45.117949 -103.674551 
L 44.730706 -106.932879 
L 44.497123 -110.191208 
L 44.4 -113.449536 
L 44.411584 -116.707864 
L 44.498508 -119.966193 
L 44.627949 -123.224521 
L 44.773556 -126.482849 
L 44.919723 -129.741178 
L 45.063237 -132.999506 
L 45.212087 -136.257834 
L 45.381979 -139.516163 
L 45.591622 -142.774491 
L 45.857945 -146.032819 
L 46.192247 -149.291148 
L 46.597805 -152.549476 
L 47.069052 -155.807804 
L 47.592137 -159.066133 
L 48.146517 -162.324461 
L 48.707256 -165.582789 
L 49.247777 -168.841118 
L 49.742796 -172.099446 
L 50.171142 -175.357774 
L 50.51805 -178.616103 
L 50.776522 -181.874431 
L 50.947479 -185.13276 
L 51.038685 -188.391088 
L 51.062749 -191.649416 
L 51.034732 -194.907745 
L 50.96994 -198.166073 
L 50.88231 -201.424401 
L 50.783528 -204.68273 
L 50.682764 -207.941058 
L 50.586796 -211.199386 
L 50.500294 -214.457715 
L 50.426186 -217.716043 
L 50.366118 -220.974371 
L 50.321069 -224.2327 
L 50.292117 -227.491028 
L 50.281241 -230.749356 
L 50.291908 -234.007685 
L 50.329164 -237.266013 
L 50.398975 -240.524341 
L 50.50678 -243.78267 
L 50.655437 -247.040998 
L 50.843015 -250.299326 
L 51.061009 -253.557655 
L 51.293547 -256.815983 
L 51.517967 -260.074311 
L 51.706822 -263.33264 
L 51.831071 -266.590968 
L 51.863912 -269.849296 
L 51.784597 -273.107625 
L 51.581568 -276.365953 
L 51.254419 -279.624281 
L 50.814425 -282.88261 
L 50.28371 -286.140938 
L 49.693341 -289.399266 
L 49.080756 -292.657595 
L 48.486943 -295.915923 
L 47.953576 -299.174251 
L 47.520215 -302.43258 
L 47.221534 -305.690908 
L 47.084619 -308.949236 
L 47.126533 -312.207565 
L 47.352486 -315.465893 
L 47.755055 -318.724221 
L 48.314744 -321.98255 
L 49.00196 -325.240878 
L 49.780147 -328.499206 
L 50.609582 -331.757535 
L 51.451246 -335.015863 
L 52.270203 -338.274191 
L 53.038113 -341.53252 
L 53.734642 -344.790848 
L 54.347757 -348.049176 
L 54.873038 -351.307505 
L 55.312249 -354.565833 
L 55.671549 -357.824161 
L 55.959665 -361.08249 
L 56.186371 -364.340818 
L 56.361396 -367.599146 
L 56.493803 -370.857475 
L 57.106197 -370.857475 
L 57.106197 -370.857475 
L 57.238604 -367.599146 
L 57.413629 -364.340818 
L 57.640335 -361.08249 
L 57.928451 -357.824161 
L 58.287751 -354.565833 
L 58.726962 -351.307505 
L 59.252243 -348.049176 
L 59.865358 -344.790848 
L 60.561887 -341.53252 
L 61.329797 -338.274191 
L 62.148754 -335.015863 
L 62.990418 -331.757535 
L 63.819853 -328.499206 
L 64.59804 -325.240878 
L 65.285256 -321.98255 
L 65.844945 -318.724221 
L 66.247514 -315.465893 
L 66.473467 -312.207565 
L 66.515381 -308.949236 
L 66.378466 -305.690908 
L 66.079785 -302.43258 
L 65.646424 -299.174251 
L 65.113057 -295.915923 
L 64.519244 -292.657595 
L 63.906659 -289.399266 
L 63.31629 -286.140938 
L 62.785575 -282.88261 
L 62.345581 -279.624281 
L 62.018432 -276.365953 
L 61.815403 -273.107625 
L 61.736088 -269.849296 
L 61.768929 -266.590968 
L 61.893178 -263.33264 
L 62.082033 -260.074311 
L 62.306453 -256.815983 
L 62.538991 -253.557655 
L 62.756985 -250.299326 
L 62.944563 -247.040998 
L 63.09322 -243.78267 
L 63.201025 -240.524341 
L 63.270836 -237.266013 
L 63.308092 -234.007685 
L 63.318759 -230.749356 
L 63.307883 -227.491028 
L 63.278931 -224.2327 
L 63.233882 -220.974371 
L 63.173814 -217.716043 
L 63.099706 -214.457715 
L 63.013204 -211.199386 
L 62.917236 -207.941058 
L 62.816472 -204.68273 
L 62.71769 -201.424401 
L 62.63006 -198.166073 
L 62.565268 -194.907745 
L 62.537251 -191.649416 
L 62.561315 -188.391088 
L 62.652521 -185.13276 
L 62.823478 -181.874431 
L 63.08195 -178.616103 
L 63.428858 -175.357774 
L 63.857204 -172.099446 
L 64.352223 -168.841118 
L 64.892744 -165.582789 
L 65.453483 -162.324461 
L 66.007863 -159.066133 
L 66.530948 -155.807804 
L 67.002195 -152.549476 
L 67.407753 -149.291148 
L 67.742055 -146.032819 
L 68.008378 -142.774491 
L 68.218021 -139.516163 
L 68.387913 -136.257834 
L 68.536763 -132.999506 
L 68.680277 -129.741178 
L 68.826444 -126.482849 
L 68.972051 -123.224521 
L 69.101492 -119.966193 
L 69.188416 -116.707864 
L 69.2 -113.449536 
L 69.102877 -110.191208 
L 68.869294 -106.932879 
L 68.482051 -103.674551 
L 67.937247 -100.416223 
L 67.244548 -97.157894 
L 66.425407 -93.899566 
L 65.509997 -90.641238 
L 64.533695 -87.382909 
L 63.533672 -84.124581 
L 62.54589 -80.866253 
L 61.602569 -77.607924 
L 60.730181 -74.349596 
L 59.948051 -71.091268 
L 59.267707 -67.832939 
L 58.693047 -64.574611 
L 58.221283 -61.316283 
L 57.844466 -58.057954 
L 57.551286 -54.799626 
L 57.328836 -51.541298 
L 57.164082 -48.282969 
z
" id="m23b9bdb5d1" style="stroke:#303030;stroke-width:2.0;"/>
    </defs>
    <g clip-path="url(#pdaf9621bb4)">
     <use style="fill:#2d2d3e;stroke:#303030;stroke-width:2.0;" x="0.0" xlink:href="#m23b9bdb5d1" y="475.2"/>
    </g>
   </g>
   <g id="PolyCollection_2">
    <defs>
     <path d="M 106.45834 -56.571429 
L 106.34166 -56.571429 
L 106.310765 -60.109499 
L 106.267565 -63.64757 
L 106.20784 -67.185641 
L 106.127431 -70.723712 
L 106.024049 -74.261783 
L 105.899065 -77.799854 
L 105.758145 -81.337925 
L 105.610076 -84.875996 
L 105.464251 -88.414067 
L 105.32829 -91.952138 
L 105.207269 -95.490209 
L 105.104641 -99.02828 
L 105.0233 -102.566351 
L 104.96494 -106.104421 
L 104.927739 -109.642492 
L 104.904283 -113.180563 
L 104.881663 -116.718634 
L 104.843911 -120.256705 
L 104.775621 -123.794776 
L 104.665479 -127.332847 
L 104.508805 -130.870918 
L 104.308506 -134.408989 
L 104.074343 -137.94706 
L 103.820965 -141.485131 
L 103.565403 -145.023202 
L 103.324636 -148.561272 
L 103.113789 -152.099343 
L 102.945213 -155.637414 
L 102.827957 -159.175485 
L 102.766679 -162.713556 
L 102.759857 -166.251627 
L 102.79853 -169.789698 
L 102.867138 -173.327769 
L 102.946827 -176.86584 
L 103.020049 -180.403911 
L 103.074539 -183.941982 
L 103.105005 -187.480053 
L 103.111922 -191.018123 
L 103.098275 -194.556194 
L 103.066104 -198.094265 
L 103.014713 -201.632336 
L 102.941376 -205.170407 
L 102.843929 -208.708478 
L 102.723297 -212.246549 
L 102.583937 -215.78462 
L 102.43176 -219.322691 
L 102.271374 -222.860762 
L 102.105193 -226.398833 
L 101.935339 -229.936904 
L 101.766881 -233.474974 
L 101.610041 -237.013045 
L 101.47977 -240.551116 
L 101.392466 -244.089187 
L 101.361095 -247.627258 
L 101.390863 -251.165329 
L 101.477184 -254.7034 
L 101.605929 -258.241471 
L 101.754711 -261.779542 
L 101.894474 -265.317613 
L 101.991602 -268.855684 
L 102.01073 -272.393755 
L 101.918022 -275.931825 
L 101.684753 -279.469896 
L 101.291205 -283.007967 
L 100.730365 -286.546038 
L 100.01032 -290.084109 
L 99.154792 -293.62218 
L 98.2025 -297.160251 
L 97.206453 -300.698322 
L 96.232836 -304.236393 
L 95.357133 -307.774464 
L 94.655151 -311.312535 
L 94.189944 -314.850606 
L 94 -318.388676 
L 94.094719 -321.926747 
L 94.458601 -325.464818 
L 95.059423 -329.002889 
L 95.854181 -332.54096 
L 96.790899 -336.079031 
L 97.809872 -339.617102 
L 98.849003 -343.155173 
L 99.853698 -346.693244 
L 100.786413 -350.231315 
L 101.629718 -353.769386 
L 102.381278 -357.307457 
L 103.045245 -360.845528 
L 103.626264 -364.383598 
L 104.128491 -367.921669 
L 104.557282 -371.45974 
L 104.920176 -374.997811 
L 105.226128 -378.535882 
L 105.483965 -382.073953 
L 105.701054 -385.612024 
L 105.882534 -389.150095 
L 106.031313 -392.688166 
L 106.149041 -396.226237 
L 106.237656 -399.764308 
L 106.300506 -403.302379 
L 106.342356 -406.840449 
L 106.457644 -406.840449 
L 106.457644 -406.840449 
L 106.499494 -403.302379 
L 106.562344 -399.764308 
L 106.650959 -396.226237 
L 106.768687 -392.688166 
L 106.917466 -389.150095 
L 107.098946 -385.612024 
L 107.316035 -382.073953 
L 107.573872 -378.535882 
L 107.879824 -374.997811 
L 108.242718 -371.45974 
L 108.671509 -367.921669 
L 109.173736 -364.383598 
L 109.754755 -360.845528 
L 110.418722 -357.307457 
L 111.170282 -353.769386 
L 112.013587 -350.231315 
L 112.946302 -346.693244 
L 113.950997 -343.155173 
L 114.990128 -339.617102 
L 116.009101 -336.079031 
L 116.945819 -332.54096 
L 117.740577 -329.002889 
L 118.341399 -325.464818 
L 118.705281 -321.926747 
L 118.8 -318.388676 
L 118.610056 -314.850606 
L 118.144849 -311.312535 
L 117.442867 -307.774464 
L 116.567164 -304.236393 
L 115.593547 -300.698322 
L 114.5975 -297.160251 
L 113.645208 -293.62218 
L 112.78968 -290.084109 
L 112.069635 -286.546038 
L 111.508795 -283.007967 
L 111.115247 -279.469896 
L 110.881978 -275.931825 
L 110.78927 -272.393755 
L 110.808398 -268.855684 
L 110.905526 -265.317613 
L 111.045289 -261.779542 
L 111.194071 -258.241471 
L 111.322816 -254.7034 
L 111.409137 -251.165329 
L 111.438905 -247.627258 
L 111.407534 -244.089187 
L 111.32023 -240.551116 
L 111.189959 -237.013045 
L 111.033119 -233.474974 
L 110.864661 -229.936904 
L 110.694807 -226.398833 
L 110.528626 -222.860762 
L 110.36824 -219.322691 
L 110.216063 -215.78462 
L 110.076703 -212.246549 
L 109.956071 -208.708478 
L 109.858624 -205.170407 
L 109.785287 -201.632336 
L 109.733896 -198.094265 
L 109.701725 -194.556194 
L 109.688078 -191.018123 
L 109.694995 -187.480053 
L 109.725461 -183.941982 
L 109.779951 -180.403911 
L 109.853173 -176.86584 
L 109.932862 -173.327769 
L 110.00147 -169.789698 
L 110.040143 -166.251627 
L 110.033321 -162.713556 
L 109.972043 -159.175485 
L 109.854787 -155.637414 
L 109.686211 -152.099343 
L 109.475364 -148.561272 
L 109.234597 -145.023202 
L 108.979035 -141.485131 
L 108.725657 -137.94706 
L 108.491494 -134.408989 
L 108.291195 -130.870918 
L 108.134521 -127.332847 
L 108.024379 -123.794776 
L 107.956089 -120.256705 
L 107.918337 -116.718634 
L 107.895717 -113.180563 
L 107.872261 -109.642492 
L 107.83506 -106.104421 
L 107.7767 -102.566351 
L 107.695359 -99.02828 
L 107.592731 -95.490209 
L 107.47171 -91.952138 
L 107.335749 -88.414067 
L 107.189924 -84.875996 
L 107.041855 -81.337925 
L 106.900935 -77.799854 
L 106.775951 -74.261783 
L 106.672569 -70.723712 
L 106.59216 -67.185641 
L 106.532435 -63.64757 
L 106.489235 -60.109499 
L 106.45834 -56.571429 
z
" id="m343dcbbdac" style="stroke:#303030;stroke-width:2.0;"/>
    </defs>
    <g clip-path="url(#pdaf9621bb4)">
     <use style="fill:#464661;stroke:#303030;stroke-width:2.0;" x="0.0" xlink:href="#m343dcbbdac" y="475.2"/>
    </g>
   </g>
   <g id="PolyCollection_3">
    <defs>
     <path d="M 156.001898 -99.561516 
L 155.998102 -99.561516 
L 155.997035 -103.082847 
L 155.994622 -106.604178 
L 155.989719 -110.125509 
L 155.981904 -113.64684 
L 155.971374 -117.168171 
L 155.957231 -120.689503 
L 155.936869 -124.210834 
L 155.908328 -127.732165 
L 155.871846 -131.253496 
L 155.827767 -134.774827 
L 155.774522 -138.296158 
L 155.710402 -141.817489 
L 155.636245 -145.33882 
L 155.554216 -148.860151 
L 155.465466 -152.381482 
L 155.373226 -155.902813 
L 155.286505 -159.424145 
L 155.215189 -162.945476 
L 155.162029 -166.466807 
L 155.122454 -169.988138 
L 155.090935 -173.509469 
L 155.064477 -177.0308 
L 155.040551 -180.552131 
L 155.016225 -184.073462 
L 154.989954 -187.594793 
L 154.95972 -191.116124 
L 154.920272 -194.637455 
L 154.867346 -198.158787 
L 154.803174 -201.680118 
L 154.734702 -205.201449 
L 154.666816 -208.72278 
L 154.599163 -212.244111 
L 154.532764 -215.765442 
L 154.475131 -219.286773 
L 154.429089 -222.808104 
L 154.380058 -226.329435 
L 154.306243 -229.850766 
L 154.198232 -233.372097 
L 154.061294 -236.893428 
L 153.909012 -240.41476 
L 153.759089 -243.936091 
L 153.62255 -247.457422 
L 153.495616 -250.978753 
L 153.371478 -254.500084 
L 153.258115 -258.021415 
L 153.175423 -261.542746 
L 153.134277 -265.064077 
L 153.124389 -268.585408 
L 153.123062 -272.106739 
L 153.107109 -275.62807 
L 153.049286 -279.149402 
L 152.909871 -282.670733 
L 152.646832 -286.192064 
L 152.240271 -289.713395 
L 151.695113 -293.234726 
L 151.012162 -296.756057 
L 150.175247 -300.277388 
L 149.18201 -303.798719 
L 148.074385 -307.32005 
L 146.933061 -310.841381 
L 145.855266 -314.362712 
L 144.933438 -317.884044 
L 144.233545 -321.405375 
L 143.785859 -324.926706 
L 143.6 -328.448037 
L 143.684624 -331.969368 
L 144.045676 -335.490699 
L 144.660961 -339.01203 
L 145.461037 -342.533361 
L 146.355575 -346.054692 
L 147.282377 -349.576023 
L 148.211864 -353.097354 
L 149.110694 -356.618685 
L 149.934453 -360.140017 
L 150.658385 -363.661348 
L 151.288182 -367.182679 
L 151.837423 -370.70401 
L 152.311131 -374.225341 
L 152.714467 -377.746672 
L 153.061414 -381.268003 
L 153.364684 -384.789334 
L 153.632028 -388.310665 
L 153.877348 -391.831996 
L 154.117919 -395.353327 
L 154.362505 -398.874659 
L 154.612998 -402.39599 
L 154.866577 -405.917321 
L 155.111327 -409.438652 
L 155.331822 -412.959983 
L 155.519154 -416.481314 
L 155.670709 -420.002645 
L 155.78623 -423.523976 
L 155.868357 -427.045307 
L 155.92341 -430.566638 
L 155.958475 -434.087969 
L 155.978955 -437.609301 
L 155.989363 -441.130632 
L 155.994082 -444.651963 
L 155.99643 -448.173294 
L 156.00357 -448.173294 
L 156.00357 -448.173294 
L 156.005918 -444.651963 
L 156.010637 -441.130632 
L 156.021045 -437.609301 
L 156.041525 -434.087969 
L 156.07659 -430.566638 
L 156.131643 -427.045307 
L 156.21377 -423.523976 
L 156.329291 -420.002645 
L 156.480846 -416.481314 
L 156.668178 -412.959983 
L 156.888673 -409.438652 
L 157.133423 -405.917321 
L 157.387002 -402.39599 
L 157.637495 -398.874659 
L 157.882081 -395.353327 
L 158.122652 -391.831996 
L 158.367972 -388.310665 
L 158.635316 -384.789334 
L 158.938586 -381.268003 
L 159.285533 -377.746672 
L 159.688869 -374.225341 
L 160.162577 -370.70401 
L 160.711818 -367.182679 
L 161.341615 -363.661348 
L 162.065547 -360.140017 
L 162.889306 -356.618685 
L 163.788136 -353.097354 
L 164.717623 -349.576023 
L 165.644425 -346.054692 
L 166.538963 -342.533361 
L 167.339039 -339.01203 
L 167.954324 -335.490699 
L 168.315376 -331.969368 
L 168.4 -328.448037 
L 168.214141 -324.926706 
L 167.766455 -321.405375 
L 167.066562 -317.884044 
L 166.144734 -314.362712 
L 165.066939 -310.841381 
L 163.925615 -307.32005 
L 162.81799 -303.798719 
L 161.824753 -300.277388 
L 160.987838 -296.756057 
L 160.304887 -293.234726 
L 159.759729 -289.713395 
L 159.353168 -286.192064 
L 159.090129 -282.670733 
L 158.950714 -279.149402 
L 158.892891 -275.62807 
L 158.876938 -272.106739 
L 158.875611 -268.585408 
L 158.865723 -265.064077 
L 158.824577 -261.542746 
L 158.741885 -258.021415 
L 158.628522 -254.500084 
L 158.504384 -250.978753 
L 158.37745 -247.457422 
L 158.240911 -243.936091 
L 158.090988 -240.41476 
L 157.938706 -236.893428 
L 157.801768 -233.372097 
L 157.693757 -229.850766 
L 157.619942 -226.329435 
L 157.570911 -222.808104 
L 157.524869 -219.286773 
L 157.467236 -215.765442 
L 157.400837 -212.244111 
L 157.333184 -208.72278 
L 157.265298 -205.201449 
L 157.196826 -201.680118 
L 157.132654 -198.158787 
L 157.079728 -194.637455 
L 157.04028 -191.116124 
L 157.010046 -187.594793 
L 156.983775 -184.073462 
L 156.959449 -180.552131 
L 156.935523 -177.0308 
L 156.909065 -173.509469 
L 156.877546 -169.988138 
L 156.837971 -166.466807 
L 156.784811 -162.945476 
L 156.713495 -159.424145 
L 156.626774 -155.902813 
L 156.534534 -152.381482 
L 156.445784 -148.860151 
L 156.363755 -145.33882 
L 156.289598 -141.817489 
L 156.225478 -138.296158 
L 156.172233 -134.774827 
L 156.128154 -131.253496 
L 156.091672 -127.732165 
L 156.063131 -124.210834 
L 156.042769 -120.689503 
L 156.028626 -117.168171 
L 156.018096 -113.64684 
L 156.010281 -110.125509 
L 156.005378 -106.604178 
L 156.002965 -103.082847 
L 156.001898 -99.561516 
z
" id="mf147cbe635" style="stroke:#303030;stroke-width:2.0;"/>
    </defs>
    <g clip-path="url(#pdaf9621bb4)">
     <use style="fill:#5f657f;stroke:#303030;stroke-width:2.0;" x="0.0" xlink:href="#mf147cbe635" y="475.2"/>
    </g>
   </g>
   <g id="PolyCollection_4">
    <defs>
     <path d="M 205.61189 -169.887023 
L 205.58811 -169.887023 
L 205.582139 -172.749789 
L 205.575454 -175.612556 
L 205.56707 -178.475322 
L 205.555415 -181.338088 
L 205.539421 -184.200855 
L 205.520189 -187.063621 
L 205.499316 -189.926387 
L 205.476281 -192.789154 
L 205.447823 -195.65192 
L 205.410851 -198.514686 
L 205.368422 -201.377453 
L 205.32801 -204.240219 
L 205.292864 -207.102985 
L 205.262498 -209.965752 
L 205.239328 -212.828518 
L 205.22642 -215.691284 
L 205.220982 -218.554051 
L 205.219828 -221.416817 
L 205.223378 -224.279583 
L 205.226379 -227.14235 
L 205.221199 -230.005116 
L 205.207107 -232.867882 
L 205.181124 -235.730649 
L 205.135661 -238.593415 
L 205.071577 -241.456181 
L 204.997416 -244.318948 
L 204.916422 -247.181714 
L 204.82088 -250.04448 
L 204.700789 -252.907247 
L 204.56344 -255.770013 
L 204.433272 -258.632779 
L 204.321715 -261.495546 
L 204.221088 -264.358312 
L 204.135542 -267.221078 
L 204.083779 -270.083845 
L 204.06683 -272.946611 
L 204.063397 -275.809377 
L 204.056555 -278.672144 
L 204.042544 -281.53491 
L 204.011412 -284.397676 
L 203.944468 -287.260443 
L 203.830862 -290.123209 
L 203.659585 -292.985975 
L 203.408707 -295.848742 
L 203.061843 -298.711508 
L 202.610282 -301.574274 
L 202.040241 -304.437041 
L 201.354967 -307.299807 
L 200.586612 -310.162573 
L 199.753074 -313.02534 
L 198.839579 -315.888106 
L 197.852559 -318.750872 
L 196.859244 -321.613639 
L 195.94231 -324.476405 
L 195.134721 -327.339171 
L 194.433602 -330.201938 
L 193.863177 -333.064704 
L 193.46595 -335.92747 
L 193.247339 -338.790237 
L 193.2 -341.653003 
L 193.34533 -344.515769 
L 193.681639 -347.378536 
L 194.164041 -350.241302 
L 194.75749 -353.104068 
L 195.42475 -355.966835 
L 196.10021 -358.829601 
L 196.746023 -361.692367 
L 197.373763 -364.555134 
L 197.971731 -367.4179 
L 198.486768 -370.280666 
L 198.892215 -373.143433 
L 199.208175 -376.006199 
L 199.463656 -378.868965 
L 199.669238 -381.731732 
L 199.818089 -384.594498 
L 199.914515 -387.457264 
L 199.99425 -390.320031 
L 200.106115 -393.182797 
L 200.288953 -396.045563 
L 200.565087 -398.90833 
L 200.933612 -401.771096 
L 201.376566 -404.633862 
L 201.879125 -407.496629 
L 202.43041 -410.359395 
L 203.002788 -413.222161 
L 203.55129 -416.084928 
L 204.041048 -418.947694 
L 204.455634 -421.810461 
L 204.787656 -424.673227 
L 205.041956 -427.535993 
L 205.232563 -430.39876 
L 205.369303 -433.261526 
L 205.457943 -436.124292 
L 205.510056 -438.987059 
L 205.542285 -441.849825 
L 205.565239 -444.712591 
L 205.580893 -447.575358 
L 205.589765 -450.438124 
L 205.594367 -453.30089 
L 205.605633 -453.30089 
L 205.605633 -453.30089 
L 205.610235 -450.438124 
L 205.619107 -447.575358 
L 205.634761 -444.712591 
L 205.657715 -441.849825 
L 205.689944 -438.987059 
L 205.742057 -436.124292 
L 205.830697 -433.261526 
L 205.967437 -430.39876 
L 206.158044 -427.535993 
L 206.412344 -424.673227 
L 206.744366 -421.810461 
L 207.158952 -418.947694 
L 207.64871 -416.084928 
L 208.197212 -413.222161 
L 208.76959 -410.359395 
L 209.320875 -407.496629 
L 209.823434 -404.633862 
L 210.266388 -401.771096 
L 210.634913 -398.90833 
L 210.911047 -396.045563 
L 211.093885 -393.182797 
L 211.20575 -390.320031 
L 211.285485 -387.457264 
L 211.381911 -384.594498 
L 211.530762 -381.731732 
L 211.736344 -378.868965 
L 211.991825 -376.006199 
L 212.307785 -373.143433 
L 212.713232 -370.280666 
L 213.228269 -367.4179 
L 213.826237 -364.555134 
L 214.453977 -361.692367 
L 215.09979 -358.829601 
L 215.77525 -355.966835 
L 216.44251 -353.104068 
L 217.035959 -350.241302 
L 217.518361 -347.378536 
L 217.85467 -344.515769 
L 218 -341.653003 
L 217.952661 -338.790237 
L 217.73405 -335.92747 
L 217.336823 -333.064704 
L 216.766398 -330.201938 
L 216.065279 -327.339171 
L 215.25769 -324.476405 
L 214.340756 -321.613639 
L 213.347441 -318.750872 
L 212.360421 -315.888106 
L 211.446926 -313.02534 
L 210.613388 -310.162573 
L 209.845033 -307.299807 
L 209.159759 -304.437041 
L 208.589718 -301.574274 
L 208.138157 -298.711508 
L 207.791293 -295.848742 
L 207.540415 -292.985975 
L 207.369138 -290.123209 
L 207.255532 -287.260443 
L 207.188588 -284.397676 
L 207.157456 -281.53491 
L 207.143445 -278.672144 
L 207.136603 -275.809377 
L 207.13317 -272.946611 
L 207.116221 -270.083845 
L 207.064458 -267.221078 
L 206.978912 -264.358312 
L 206.878285 -261.495546 
L 206.766728 -258.632779 
L 206.63656 -255.770013 
L 206.499211 -252.907247 
L 206.37912 -250.04448 
L 206.283578 -247.181714 
L 206.202584 -244.318948 
L 206.128423 -241.456181 
L 206.064339 -238.593415 
L 206.018876 -235.730649 
L 205.992893 -232.867882 
L 205.978801 -230.005116 
L 205.973621 -227.14235 
L 205.976622 -224.279583 
L 205.980172 -221.416817 
L 205.979018 -218.554051 
L 205.97358 -215.691284 
L 205.960672 -212.828518 
L 205.937502 -209.965752 
L 205.907136 -207.102985 
L 205.87199 -204.240219 
L 205.831578 -201.377453 
L 205.789149 -198.514686 
L 205.752177 -195.65192 
L 205.723719 -192.789154 
L 205.700684 -189.926387 
L 205.679811 -187.063621 
L 205.660579 -184.200855 
L 205.644585 -181.338088 
L 205.63293 -178.475322 
L 205.624546 -175.612556 
L 205.617861 -172.749789 
L 205.61189 -169.887023 
z
" id="mcdbb14b7dc" style="stroke:#303030;stroke-width:2.0;"/>
    </defs>
    <g clip-path="url(#pdaf9621bb4)">
     <use style="fill:#798799;stroke:#303030;stroke-width:2.0;" x="0.0" xlink:href="#mcdbb14b7dc" y="475.2"/>
    </g>
   </g>
   <g id="PolyCollection_5">
    <defs>
     <path d="M 255.205647 -222.150437 
L 255.194353 -222.150437 
L 255.191787 -224.51982 
L 255.190024 -226.889202 
L 255.188205 -229.258584 
L 255.184993 -231.627967 
L 255.180279 -233.997349 
L 255.173322 -236.366731 
L 255.161958 -238.736114 
L 255.145801 -241.105496 
L 255.126719 -243.474878 
L 255.10532 -245.844261 
L 255.080161 -248.213643 
L 255.05021 -250.583025 
L 255.016492 -252.952408 
L 254.981137 -255.32179 
L 254.945115 -257.691172 
L 254.907988 -260.060555 
L 254.870134 -262.429937 
L 254.834674 -264.799319 
L 254.808041 -267.168702 
L 254.794959 -269.538084 
L 254.7886 -271.907466 
L 254.775137 -274.276849 
L 254.751247 -276.646231 
L 254.725649 -279.015613 
L 254.710058 -281.384996 
L 254.718422 -283.754378 
L 254.755285 -286.12376 
L 254.796875 -288.493143 
L 254.807558 -290.862525 
L 254.778459 -293.231907 
L 254.725251 -295.601289 
L 254.654143 -297.970672 
L 254.557577 -300.340054 
L 254.429028 -302.709436 
L 254.260659 -305.078819 
L 254.040489 -307.448201 
L 253.759656 -309.817583 
L 253.411467 -312.186966 
L 252.983163 -314.556348 
L 252.456393 -316.92573 
L 251.825271 -319.295113 
L 251.123637 -321.664495 
L 250.400489 -324.033877 
L 249.651818 -326.40326 
L 248.833823 -328.772642 
L 247.944956 -331.142024 
L 247.034631 -333.511407 
L 246.14499 -335.880789 
L 245.313435 -338.250171 
L 244.602703 -340.619554 
L 244.051671 -342.988936 
L 243.628971 -345.358318 
L 243.274713 -347.727701 
L 242.97738 -350.097083 
L 242.8 -352.466465 
L 242.80797 -354.835848 
L 242.977999 -357.20523 
L 243.218767 -359.574612 
L 243.470763 -361.943995 
L 243.733721 -364.313377 
L 244.002718 -366.682759 
L 244.250122 -369.052142 
L 244.47271 -371.421524 
L 244.688173 -373.790906 
L 244.883379 -376.160289 
L 245.009702 -378.529671 
L 245.03156 -380.899053 
L 244.955078 -383.268436 
L 244.822607 -385.637818 
L 244.689375 -388.0072 
L 244.576344 -390.376583 
L 244.443311 -392.745965 
L 244.252934 -395.115347 
L 244.070304 -397.48473 
L 244.048751 -399.854112 
L 244.285329 -402.223494 
L 244.736383 -404.592877 
L 245.327078 -406.962259 
L 246.056417 -409.331641 
L 246.929699 -411.701024 
L 247.908923 -414.070406 
L 248.9522 -416.439788 
L 250.005258 -418.809171 
L 251.000999 -421.178553 
L 251.898145 -423.547935 
L 252.671989 -425.917318 
L 253.303952 -428.2867 
L 253.802993 -430.656082 
L 254.194463 -433.025465 
L 254.492458 -435.394847 
L 254.706076 -437.764229 
L 254.856211 -440.133612 
L 254.968266 -442.502994 
L 255.053782 -444.872376 
L 255.111444 -447.241759 
L 255.144034 -449.611141 
L 255.162161 -451.980523 
L 255.174519 -454.349906 
L 255.184466 -456.719288 
L 255.215534 -456.719288 
L 255.215534 -456.719288 
L 255.225481 -454.349906 
L 255.237839 -451.980523 
L 255.255966 -449.611141 
L 255.288556 -447.241759 
L 255.346218 -444.872376 
L 255.431734 -442.502994 
L 255.543789 -440.133612 
L 255.693924 -437.764229 
L 255.907542 -435.394847 
L 256.205537 -433.025465 
L 256.597007 -430.656082 
L 257.096048 -428.2867 
L 257.728011 -425.917318 
L 258.501855 -423.547935 
L 259.399001 -421.178553 
L 260.394742 -418.809171 
L 261.4478 -416.439788 
L 262.491077 -414.070406 
L 263.470301 -411.701024 
L 264.343583 -409.331641 
L 265.072922 -406.962259 
L 265.663617 -404.592877 
L 266.114671 -402.223494 
L 266.351249 -399.854112 
L 266.329696 -397.48473 
L 266.147066 -395.115347 
L 265.956689 -392.745965 
L 265.823656 -390.376583 
L 265.710625 -388.0072 
L 265.577393 -385.637818 
L 265.444922 -383.268436 
L 265.36844 -380.899053 
L 265.390298 -378.529671 
L 265.516621 -376.160289 
L 265.711827 -373.790906 
L 265.92729 -371.421524 
L 266.149878 -369.052142 
L 266.397282 -366.682759 
L 266.666279 -364.313377 
L 266.929237 -361.943995 
L 267.181233 -359.574612 
L 267.422001 -357.20523 
L 267.59203 -354.835848 
L 267.6 -352.466465 
L 267.42262 -350.097083 
L 267.125287 -347.727701 
L 266.771029 -345.358318 
L 266.348329 -342.988936 
L 265.797297 -340.619554 
L 265.086565 -338.250171 
L 264.25501 -335.880789 
L 263.365369 -333.511407 
L 262.455044 -331.142024 
L 261.566177 -328.772642 
L 260.748182 -326.40326 
L 259.999511 -324.033877 
L 259.276363 -321.664495 
L 258.574729 -319.295113 
L 257.943607 -316.92573 
L 257.416837 -314.556348 
L 256.988533 -312.186966 
L 256.640344 -309.817583 
L 256.359511 -307.448201 
L 256.139341 -305.078819 
L 255.970972 -302.709436 
L 255.842423 -300.340054 
L 255.745857 -297.970672 
L 255.674749 -295.601289 
L 255.621541 -293.231907 
L 255.592442 -290.862525 
L 255.603125 -288.493143 
L 255.644715 -286.12376 
L 255.681578 -283.754378 
L 255.689942 -281.384996 
L 255.674351 -279.015613 
L 255.648753 -276.646231 
L 255.624863 -274.276849 
L 255.6114 -271.907466 
L 255.605041 -269.538084 
L 255.591959 -267.168702 
L 255.565326 -264.799319 
L 255.529866 -262.429937 
L 255.492012 -260.060555 
L 255.454885 -257.691172 
L 255.418863 -255.32179 
L 255.383508 -252.952408 
L 255.34979 -250.583025 
L 255.319839 -248.213643 
L 255.29468 -245.844261 
L 255.273281 -243.474878 
L 255.254199 -241.105496 
L 255.238042 -238.736114 
L 255.226678 -236.366731 
L 255.219721 -233.997349 
L 255.215007 -231.627967 
L 255.211795 -229.258584 
L 255.209976 -226.889202 
L 255.208213 -224.51982 
L 255.205647 -222.150437 
z
" id="mc2a269ab0a" style="stroke:#303030;stroke-width:2.0;"/>
    </defs>
    <g clip-path="url(#pdaf9621bb4)">
     <use style="fill:#93acb3;stroke:#303030;stroke-width:2.0;" x="0.0" xlink:href="#mc2a269ab0a" y="475.2"/>
    </g>
   </g>
   <g id="PolyCollection_6">
    <defs>
     <path d="M 304.804763 -296.395021 
L 304.795237 -296.395021 
L 304.793694 -298.021695 
L 304.791342 -299.64837 
L 304.787628 -301.275045 
L 304.78245 -302.901719 
L 304.775899 -304.528394 
L 304.767427 -306.155068 
L 304.755477 -307.781743 
L 304.738399 -309.408418 
L 304.715863 -311.035092 
L 304.688906 -312.661767 
L 304.658193 -314.288442 
L 304.622418 -315.915116 
L 304.57866 -317.541791 
L 304.523955 -319.168465 
L 304.456248 -320.79514 
L 304.374491 -322.421815 
L 304.277852 -324.048489 
L 304.163217 -325.675164 
L 304.02337 -327.301838 
L 303.850355 -328.928513 
L 303.642353 -330.555188 
L 303.406023 -332.181862 
L 303.15158 -333.808537 
L 302.886712 -335.435212 
L 302.614203 -337.061886 
L 302.332046 -338.688561 
L 302.035598 -340.315235 
L 301.722859 -341.94191 
L 301.397544 -343.568585 
L 301.063575 -345.195259 
L 300.718002 -346.821934 
L 300.355049 -348.448609 
L 299.978429 -350.075283 
L 299.606036 -351.701958 
L 299.25977 -353.328632 
L 298.95038 -354.955307 
L 298.671926 -356.581982 
L 298.409668 -358.208656 
L 298.153752 -359.835331 
L 297.908999 -361.462005 
L 297.6933 -363.08868 
L 297.524011 -364.715355 
L 297.404756 -366.342029 
L 297.325373 -367.968704 
L 297.270658 -369.595379 
L 297.226724 -371.222053 
L 297.182853 -372.848728 
L 297.130375 -374.475402 
L 297.059329 -376.102077 
L 296.958124 -377.728752 
L 296.820508 -379.355426 
L 296.652677 -380.982101 
L 296.468815 -382.608775 
L 296.27633 -384.23545 
L 296.067629 -385.862125 
L 295.83046 -387.488799 
L 295.564781 -389.115474 
L 295.282696 -390.742149 
L 294.990426 -392.368823 
L 294.678158 -393.995498 
L 294.331875 -395.622172 
L 293.949333 -397.248847 
L 293.543723 -398.875522 
L 293.142495 -400.502196 
L 292.78714 -402.128871 
L 292.526069 -403.755545 
L 292.4 -405.38222 
L 292.430188 -407.008895 
L 292.616444 -408.635569 
L 292.944218 -410.262244 
L 293.393217 -411.888919 
L 293.940159 -413.515593 
L 294.561659 -415.142268 
L 295.245162 -416.768942 
L 295.993395 -418.395617 
L 296.806014 -420.022292 
L 297.657433 -421.648966 
L 298.502259 -423.275641 
L 299.302882 -424.902316 
L 300.045967 -426.52899 
L 300.734975 -428.155665 
L 301.374979 -429.782339 
L 301.964475 -431.409014 
L 302.495036 -433.035689 
L 302.956441 -434.662363 
L 303.343626 -436.289038 
L 303.658664 -437.915712 
L 303.907249 -439.542387 
L 304.097201 -441.169062 
L 304.240608 -442.795736 
L 304.352507 -444.422411 
L 304.444748 -446.049086 
L 304.522437 -447.67576 
L 304.586686 -449.302435 
L 304.638854 -450.929109 
L 304.681329 -452.555784 
L 304.716001 -454.182459 
L 304.743724 -455.809133 
L 304.764979 -457.435808 
L 304.835021 -457.435808 
L 304.835021 -457.435808 
L 304.856276 -455.809133 
L 304.883999 -454.182459 
L 304.918671 -452.555784 
L 304.961146 -450.929109 
L 305.013314 -449.302435 
L 305.077563 -447.67576 
L 305.155252 -446.049086 
L 305.247493 -444.422411 
L 305.359392 -442.795736 
L 305.502799 -441.169062 
L 305.692751 -439.542387 
L 305.941336 -437.915712 
L 306.256374 -436.289038 
L 306.643559 -434.662363 
L 307.104964 -433.035689 
L 307.635525 -431.409014 
L 308.225021 -429.782339 
L 308.865025 -428.155665 
L 309.554033 -426.52899 
L 310.297118 -424.902316 
L 311.097741 -423.275641 
L 311.942567 -421.648966 
L 312.793986 -420.022292 
L 313.606605 -418.395617 
L 314.354838 -416.768942 
L 315.038341 -415.142268 
L 315.659841 -413.515593 
L 316.206783 -411.888919 
L 316.655782 -410.262244 
L 316.983556 -408.635569 
L 317.169812 -407.008895 
L 317.2 -405.38222 
L 317.073931 -403.755545 
L 316.81286 -402.128871 
L 316.457505 -400.502196 
L 316.056277 -398.875522 
L 315.650667 -397.248847 
L 315.268125 -395.622172 
L 314.921842 -393.995498 
L 314.609574 -392.368823 
L 314.317304 -390.742149 
L 314.035219 -389.115474 
L 313.76954 -387.488799 
L 313.532371 -385.862125 
L 313.32367 -384.23545 
L 313.131185 -382.608775 
L 312.947323 -380.982101 
L 312.779492 -379.355426 
L 312.641876 -377.728752 
L 312.540671 -376.102077 
L 312.469625 -374.475402 
L 312.417147 -372.848728 
L 312.373276 -371.222053 
L 312.329342 -369.595379 
L 312.274627 -367.968704 
L 312.195244 -366.342029 
L 312.075989 -364.715355 
L 311.9067 -363.08868 
L 311.691001 -361.462005 
L 311.446248 -359.835331 
L 311.190332 -358.208656 
L 310.928074 -356.581982 
L 310.64962 -354.955307 
L 310.34023 -353.328632 
L 309.993964 -351.701958 
L 309.621571 -350.075283 
L 309.244951 -348.448609 
L 308.881998 -346.821934 
L 308.536425 -345.195259 
L 308.202456 -343.568585 
L 307.877141 -341.94191 
L 307.564402 -340.315235 
L 307.267954 -338.688561 
L 306.985797 -337.061886 
L 306.713288 -335.435212 
L 306.44842 -333.808537 
L 306.193977 -332.181862 
L 305.957647 -330.555188 
L 305.749645 -328.928513 
L 305.57663 -327.301838 
L 305.436783 -325.675164 
L 305.322148 -324.048489 
L 305.225509 -322.421815 
L 305.143752 -320.79514 
L 305.076045 -319.168465 
L 305.02134 -317.541791 
L 304.977582 -315.915116 
L 304.941807 -314.288442 
L 304.911094 -312.661767 
L 304.884137 -311.035092 
L 304.861601 -309.408418 
L 304.844523 -307.781743 
L 304.832573 -306.155068 
L 304.824101 -304.528394 
L 304.81755 -302.901719 
L 304.812372 -301.275045 
L 304.808658 -299.64837 
L 304.806306 -298.021695 
L 304.804763 -296.395021 
z
" id="m2a894c1068" style="stroke:#303030;stroke-width:2.0;"/>
    </defs>
    <g clip-path="url(#pdaf9621bb4)">
     <use style="fill:#b0cccc;stroke:#303030;stroke-width:2.0;" x="0.0" xlink:href="#m2a894c1068" y="475.2"/>
    </g>
   </g>
   <g id="PolyCollection_7">
    <defs>
     <path d="M 354.414973 -330.360494 
L 354.385027 -330.360494 
L 354.37928 -331.679283 
L 354.370735 -332.998073 
L 354.35788 -334.316863 
L 354.339649 -335.635652 
L 354.316063 -336.954442 
L 354.288471 -338.273232 
L 354.258949 -339.592021 
L 354.22887 -340.910811 
L 354.197642 -342.229601 
L 354.163008 -343.54839 
L 354.122844 -344.86718 
L 354.076592 -346.18597 
L 354.024546 -347.504759 
L 353.965572 -348.823549 
L 353.89551 -350.142339 
L 353.807889 -351.461128 
L 353.696547 -352.779918 
L 353.558668 -354.098708 
L 353.396934 -355.417497 
L 353.220142 -356.736287 
L 353.04168 -358.055077 
L 352.875454 -359.373866 
L 352.729991 -360.692656 
L 352.603401 -362.011446 
L 352.482564 -363.330235 
L 352.34814 -364.649025 
L 352.183886 -365.967815 
L 351.98626 -367.286604 
L 351.768961 -368.605394 
L 351.558082 -369.924184 
L 351.378351 -371.242973 
L 351.238082 -372.561763 
L 351.123526 -373.880553 
L 351.007242 -375.199342 
L 350.863993 -376.518132 
L 350.682448 -377.836922 
L 350.46606 -379.155711 
L 350.225764 -380.474501 
L 349.972372 -381.793291 
L 349.714639 -383.11208 
L 349.46172 -384.43087 
L 349.223065 -385.74966 
L 349.002172 -387.068449 
L 348.790068 -388.387239 
L 348.5666 -389.706029 
L 348.309028 -391.024818 
L 348.000369 -392.343608 
L 347.63297 -393.662398 
L 347.208257 -394.981187 
L 346.733739 -396.299977 
L 346.217818 -397.618767 
L 345.666445 -398.937556 
L 345.086446 -400.256346 
L 344.493224 -401.575136 
L 343.913666 -402.893925 
L 343.379528 -404.212715 
L 342.91729 -405.531505 
L 342.543453 -406.850294 
L 342.266225 -408.169084 
L 342.087541 -409.487874 
L 342.002428 -410.806663 
L 342 -412.125453 
L 342.070637 -413.444243 
L 342.216204 -414.763032 
L 342.453551 -416.081822 
L 342.804096 -417.400612 
L 343.273832 -418.719401 
L 343.839168 -420.038191 
L 344.452782 -421.356981 
L 345.068301 -422.67577 
L 345.665866 -423.99456 
L 346.258379 -425.31335 
L 346.873664 -426.632139 
L 347.527633 -427.950929 
L 348.210184 -429.269718 
L 348.892964 -430.588508 
L 349.54873 -431.907298 
L 350.164361 -433.226087 
L 350.739129 -434.544877 
L 351.274393 -435.863667 
L 351.765904 -437.182456 
L 352.203939 -438.501246 
L 352.578783 -439.820036 
L 352.886681 -441.138825 
L 353.132963 -442.457615 
L 353.33102 -443.776405 
L 353.497521 -445.095194 
L 353.646165 -446.413984 
L 353.783381 -447.732774 
L 353.908357 -449.051563 
L 354.016867 -450.370353 
L 354.105857 -451.689143 
L 354.175737 -453.007932 
L 354.229726 -454.326722 
L 354.271812 -455.645512 
L 354.305157 -456.964301 
L 354.331669 -458.283091 
L 354.35241 -459.601881 
L 354.368173 -460.92067 
L 354.431827 -460.92067 
L 354.431827 -460.92067 
L 354.44759 -459.601881 
L 354.468331 -458.283091 
L 354.494843 -456.964301 
L 354.528188 -455.645512 
L 354.570274 -454.326722 
L 354.624263 -453.007932 
L 354.694143 -451.689143 
L 354.783133 -450.370353 
L 354.891643 -449.051563 
L 355.016619 -447.732774 
L 355.153835 -446.413984 
L 355.302479 -445.095194 
L 355.46898 -443.776405 
L 355.667037 -442.457615 
L 355.913319 -441.138825 
L 356.221217 -439.820036 
L 356.596061 -438.501246 
L 357.034096 -437.182456 
L 357.525607 -435.863667 
L 358.060871 -434.544877 
L 358.635639 -433.226087 
L 359.25127 -431.907298 
L 359.907036 -430.588508 
L 360.589816 -429.269718 
L 361.272367 -427.950929 
L 361.926336 -426.632139 
L 362.541621 -425.31335 
L 363.134134 -423.99456 
L 363.731699 -422.67577 
L 364.347218 -421.356981 
L 364.960832 -420.038191 
L 365.526168 -418.719401 
L 365.995904 -417.400612 
L 366.346449 -416.081822 
L 366.583796 -414.763032 
L 366.729363 -413.444243 
L 366.8 -412.125453 
L 366.797572 -410.806663 
L 366.712459 -409.487874 
L 366.533775 -408.169084 
L 366.256547 -406.850294 
L 365.88271 -405.531505 
L 365.420472 -404.212715 
L 364.886334 -402.893925 
L 364.306776 -401.575136 
L 363.713554 -400.256346 
L 363.133555 -398.937556 
L 362.582182 -397.618767 
L 362.066261 -396.299977 
L 361.591743 -394.981187 
L 361.16703 -393.662398 
L 360.799631 -392.343608 
L 360.490972 -391.024818 
L 360.2334 -389.706029 
L 360.009932 -388.387239 
L 359.797828 -387.068449 
L 359.576935 -385.74966 
L 359.33828 -384.43087 
L 359.085361 -383.11208 
L 358.827628 -381.793291 
L 358.574236 -380.474501 
L 358.33394 -379.155711 
L 358.117552 -377.836922 
L 357.936007 -376.518132 
L 357.792758 -375.199342 
L 357.676474 -373.880553 
L 357.561918 -372.561763 
L 357.421649 -371.242973 
L 357.241918 -369.924184 
L 357.031039 -368.605394 
L 356.81374 -367.286604 
L 356.616114 -365.967815 
L 356.45186 -364.649025 
L 356.317436 -363.330235 
L 356.196599 -362.011446 
L 356.070009 -360.692656 
L 355.924546 -359.373866 
L 355.75832 -358.055077 
L 355.579858 -356.736287 
L 355.403066 -355.417497 
L 355.241332 -354.098708 
L 355.103453 -352.779918 
L 354.992111 -351.461128 
L 354.90449 -350.142339 
L 354.834428 -348.823549 
L 354.775454 -347.504759 
L 354.723408 -346.18597 
L 354.677156 -344.86718 
L 354.636992 -343.54839 
L 354.602358 -342.229601 
L 354.57113 -340.910811 
L 354.541051 -339.592021 
L 354.511529 -338.273232 
L 354.483937 -336.954442 
L 354.460351 -335.635652 
L 354.44212 -334.316863 
L 354.429265 -332.998073 
L 354.42072 -331.679283 
L 354.414973 -330.360494 
z
" id="m2f627657d0" style="stroke:#303030;stroke-width:2.0;"/>
    </defs>
    <g clip-path="url(#pdaf9621bb4)">
     <use style="fill:#d7e6e6;stroke:#303030;stroke-width:2.0;" x="0.0" xlink:href="#m2f627657d0" y="475.2"/>
    </g>
   </g>
   <g id="PolyCollection_8">
    <defs>
     <path d="M 404.051085 -368.562445 
L 403.948915 -368.562445 
L 403.949865 -369.428176 
L 403.953254 -370.293906 
L 403.957753 -371.159637 
L 403.961659 -372.025368 
L 403.963305 -372.891098 
L 403.96143 -373.756829 
L 403.955386 -374.622559 
L 403.945142 -375.48829 
L 403.931074 -376.35402 
L 403.913637 -377.219751 
L 403.893007 -378.085481 
L 403.868843 -378.951212 
L 403.840273 -379.816942 
L 403.806108 -380.682673 
L 403.765231 -381.548403 
L 403.716959 -382.414134 
L 403.661231 -383.279864 
L 403.598511 -384.145595 
L 403.529415 -385.011325 
L 403.454152 -385.877056 
L 403.371872 -386.742786 
L 403.279999 -387.608517 
L 403.173679 -388.474248 
L 403.045586 -389.339978 
L 402.886444 -390.205709 
L 402.686529 -391.071439 
L 402.438057 -391.93717 
L 402.13782 -392.8029 
L 401.789037 -393.668631 
L 401.401457 -394.534361 
L 400.989334 -395.400092 
L 400.567854 -396.265822 
L 400.149335 -397.131553 
L 399.7407 -397.997283 
L 399.343164 -398.863014 
L 398.954036 -399.728744 
L 398.569513 -400.594475 
L 398.187013 -401.460205 
L 397.805975 -402.325936 
L 397.4271 -403.191666 
L 397.050906 -404.057397 
L 396.676768 -404.923127 
L 396.303122 -405.788858 
L 395.928665 -406.654589 
L 395.553711 -407.520319 
L 395.180795 -408.38605 
L 394.814081 -409.25178 
L 394.457755 -410.117511 
L 394.11413 -410.983241 
L 393.782401 -411.848972 
L 393.458859 -412.714702 
L 393.138906 -413.580433 
L 392.820439 -414.446163 
L 392.507388 -415.311894 
L 392.211747 -416.177624 
L 391.952757 -417.043355 
L 391.752896 -417.909085 
L 391.631758 -418.774816 
L 391.6 -419.640546 
L 391.655794 -420.506277 
L 391.785491 -421.372007 
L 391.968527 -422.237738 
L 392.184819 -423.103469 
L 392.421659 -423.969199 
L 392.677203 -424.83493 
L 392.959156 -425.70066 
L 393.279533 -426.566391 
L 393.648254 -427.432121 
L 394.068729 -428.297852 
L 394.537221 -429.163582 
L 395.045571 -430.029313 
L 395.585007 -430.895043 
L 396.148529 -431.760774 
L 396.730552 -432.626504 
L 397.324462 -433.492235 
L 397.920007 -434.357965 
L 398.502536 -435.223696 
L 399.054905 -436.089426 
L 399.561326 -436.955157 
L 400.011341 -437.820887 
L 400.402071 -438.686618 
L 400.737823 -439.552349 
L 401.027514 -440.418079 
L 401.281362 -441.28381 
L 401.508352 -442.14954 
L 401.715239 -443.015271 
L 401.906783 -443.881001 
L 402.086368 -444.746732 
L 402.256336 -445.612462 
L 402.417993 -446.478193 
L 402.5717 -447.343923 
L 402.717364 -448.209654 
L 402.855179 -449.075384 
L 402.986126 -449.941115 
L 403.11183 -450.806845 
L 403.233803 -451.672576 
L 403.352542 -452.538306 
L 403.467009 -453.404037 
L 403.574768 -454.269767 
L 404.425232 -454.269767 
L 404.425232 -454.269767 
L 404.532991 -453.404037 
L 404.647458 -452.538306 
L 404.766197 -451.672576 
L 404.88817 -450.806845 
L 405.013874 -449.941115 
L 405.144821 -449.075384 
L 405.282636 -448.209654 
L 405.4283 -447.343923 
L 405.582007 -446.478193 
L 405.743664 -445.612462 
L 405.913632 -444.746732 
L 406.093217 -443.881001 
L 406.284761 -443.015271 
L 406.491648 -442.14954 
L 406.718638 -441.28381 
L 406.972486 -440.418079 
L 407.262177 -439.552349 
L 407.597929 -438.686618 
L 407.988659 -437.820887 
L 408.438674 -436.955157 
L 408.945095 -436.089426 
L 409.497464 -435.223696 
L 410.079993 -434.357965 
L 410.675538 -433.492235 
L 411.269448 -432.626504 
L 411.851471 -431.760774 
L 412.414993 -430.895043 
L 412.954429 -430.029313 
L 413.462779 -429.163582 
L 413.931271 -428.297852 
L 414.351746 -427.432121 
L 414.720467 -426.566391 
L 415.040844 -425.70066 
L 415.322797 -424.83493 
L 415.578341 -423.969199 
L 415.815181 -423.103469 
L 416.031473 -422.237738 
L 416.214509 -421.372007 
L 416.344206 -420.506277 
L 416.4 -419.640546 
L 416.368242 -418.774816 
L 416.247104 -417.909085 
L 416.047243 -417.043355 
L 415.788253 -416.177624 
L 415.492612 -415.311894 
L 415.179561 -414.446163 
L 414.861094 -413.580433 
L 414.541141 -412.714702 
L 414.217599 -411.848972 
L 413.88587 -410.983241 
L 413.542245 -410.117511 
L 413.185919 -409.25178 
L 412.819205 -408.38605 
L 412.446289 -407.520319 
L 412.071335 -406.654589 
L 411.696878 -405.788858 
L 411.323232 -404.923127 
L 410.949094 -404.057397 
L 410.5729 -403.191666 
L 410.194025 -402.325936 
L 409.812987 -401.460205 
L 409.430487 -400.594475 
L 409.045964 -399.728744 
L 408.656836 -398.863014 
L 408.2593 -397.997283 
L 407.850665 -397.131553 
L 407.432146 -396.265822 
L 407.010666 -395.400092 
L 406.598543 -394.534361 
L 406.210963 -393.668631 
L 405.86218 -392.8029 
L 405.561943 -391.93717 
L 405.313471 -391.071439 
L 405.113556 -390.205709 
L 404.954414 -389.339978 
L 404.826321 -388.474248 
L 404.720001 -387.608517 
L 404.628128 -386.742786 
L 404.545848 -385.877056 
L 404.470585 -385.011325 
L 404.401489 -384.145595 
L 404.338769 -383.279864 
L 404.283041 -382.414134 
L 404.234769 -381.548403 
L 404.193892 -380.682673 
L 404.159727 -379.816942 
L 404.131157 -378.951212 
L 404.106993 -378.085481 
L 404.086363 -377.219751 
L 404.068926 -376.35402 
L 404.054858 -375.48829 
L 404.044614 -374.622559 
L 404.03857 -373.756829 
L 404.036695 -372.891098 
L 404.038341 -372.025368 
L 404.042247 -371.159637 
L 404.046746 -370.293906 
L 404.050135 -369.428176 
L 404.051085 -368.562445 
z
" id="m8d319b8e1a" style="stroke:#303030;stroke-width:2.0;"/>
    </defs>
    <g clip-path="url(#pdaf9621bb4)">
     <use style="fill:#ffffff;stroke:#303030;stroke-width:2.0;" x="0.0" xlink:href="#m8d319b8e1a" y="475.2"/>
    </g>
   </g>
   <g id="LineCollection_1"/>
   <g id="LineCollection_2"/>
   <g id="LineCollection_3"/>
   <g id="patch_3">
    <path d="M 7.2 7.2 
L 453.6 7.2 
" style="fill:none;stroke:#000000;stroke-linecap:square;stroke-linejoin:miter;"/>
   </g>
   <g id="patch_4">
    <path d="M 453.6 468 
L 453.6 7.2 
" style="fill:none;stroke:#000000;stroke-linecap:square;stroke-linejoin:miter;"/>
   </g>
   <g id="patch_5">
    <path d="M 7.2 468 
L 453.6 468 
" style="fill:none;stroke:#000000;stroke-linecap:square;stroke-linejoin:miter;"/>
   </g>
   <g id="patch_6">
    <path d="M 7.2 468 
L 7.2 7.2 
" style="fill:none;stroke:#000000;stroke-linecap:square;stroke-linejoin:miter;"/>
   </g>
  </g>
 </g>
 <defs>
  <clipPath id="pdaf9621bb4">
   <rect height="460.8" width="446.4" x="7.2" y="7.2"/>
  </clipPath>
 </defs>
</svg>
